<svg xmlns="http://www.w3.org/2000/svg" version="1.1" xmlns:xlink="http://www.w3.org/1999/xlink" xmlns:svgjs="http://svgjs.dev/svgjs" width="100%" height="100%" viewBox="0 0 1000 600"><rect width="1000" height="600" x="0" y="0" fill="white"/><g><rect width="333.3333333333333" height="333.3333333333333" rx="13.333333333333334" ry="13.333333333333334" y="205.6540707918828" fill="black" transform="matrix(0.6814519407238852,0,0,0.681451940723885,0,46.28129667429468)" x="183.43182373046875"/><path d="M292.08017951496737 297.320748724424L350.75507204349617 297.320748724424Q366.21468258763554 297.320748724424 377.82431289974016 301.5288666524619Q389.4339432118448 305.70713977249954 395.76104250790183 312.81020407656354Q402.1179866119591 319.8834235726273 405.13231221998626 327.9415217326999Q408.1167930200132 335.99961989277256 408.1167930200132 345.04259671685406Q408.1167930200132 354.05572873293534 405.13231221998626 362.11382689300797Q402.1179866119591 370.1719250530806 395.76104250790183 377.2749893571446Q389.4339432118448 384.34820885320835 377.82431289974016 388.5563267812463Q366.21468258763554 392.7345999012839 350.75507204349617 392.7345999012839L350.75507204349617 392.7345999012839L311.6583735631438 392.7345999012839L311.6583735631438 447.32075373377586L292.08017951496737 447.32075373377586L292.08017951496737 297.320748724424ZM311.6583735631438 374.2606637491174L348.8151595234787 374.2606637491174Q370.75109340367646 374.2606637491174 379.64484618775657 365.87427270104183Q388.568443779837 357.4878816529663 388.568443779837 345.04259671685406Q388.568443779837 332.5674669727416 379.64484618775657 324.18107592466606Q370.75109340367646 315.82452968459074 348.8151595234787 315.82452968459074L348.8151595234787 315.82452968459074L311.6583735631438 315.82452968459074L311.6583735631438 374.2606637491174Z " fill="white" transform="matrix(0.6814519407238852,0,0,0.681451940723885,0,46.28129667429468)"/><path d="M600.0984862503717 303.79597488060034L655.4475826547405 303.79597488060034Q670.0309152780685 303.79597488060034 680.9824913214559 307.76556928193094Q691.9340673648431 311.7070105314791 697.9025355427303 318.4074606557109Q703.8991568724 325.0797576281602 706.7426252024311 332.6811086094316Q709.5579403806798 340.28245959070307 709.5579403806798 348.8128645807965Q709.5579403806798 357.3151164191074 706.7426252024311 364.9164674003789Q703.8991568724 372.5178183816503 697.9025355427303 379.21826850588207Q691.9340673648431 385.8905654783314 680.9824913214559 389.8601598796621Q670.0309152780685 393.8016011292102 655.4475826547405 393.8016011292102L655.4475826547405 393.8016011292102L618.5669538196829 393.8016011292102L618.5669538196829 445.2937157393783L600.0984862503717 445.2937157393783L600.0984862503717 303.79597488060034ZM618.5669538196829 376.37480017585096L653.6176277888787 376.37480017585096Q674.3101943490065 376.37480017585096 682.6998335801875 368.46376452497213Q691.117625963151 360.5527288740934 691.117625963151 348.8128645807965Q691.117625963151 337.0448471357171 682.6998335801875 329.13381148483836Q674.3101943490065 321.250928985742 653.6176277888787 321.250928985742L653.6176277888787 321.250928985742L618.5669538196829 321.250928985742L618.5669538196829 376.37480017585096ZM751.3372176258899 445.2937157393783L732.8687500565787 445.2937157393783L732.8687500565787 341.91534239408725L751.3372176258899 341.91534239408725L751.3372176258899 445.2937157393783ZM732.2775338691465 300.1642183006595L752.1255058757996 300.1642183006595L752.1255058757996 320.0121903073126L732.2775338691465 320.0121903073126L732.2775338691465 300.1642183006595ZM850.661537114503 341.91534239408725L873.747121576142 341.91534239408725L833.8259523485759 392.98515972751807L873.747121576142 445.2937157393783L850.661537114503 445.2937157393783L822.8743763051885 408.61015896679817L821.8608628410191 408.61015896679817L795.5095127726115 445.2937157393783L772.39577515919 445.2937157393783L812.1480254760612 394.22389840594747L772.39577515919 341.91534239408725L795.5095127726115 341.91534239408725L822.8743763051885 378.7959712291448L823.8878897693581 378.7959712291448L850.661537114503 341.91534239408725ZM984.8394585098343 393.60452906673277L984.8394585098343 393.60452906673277L984.8394585098343 400.07975397670475L906.6018497063039 400.07975397670475Q908.2065793579056 414.268942475078 917.131128472954 422.1799781259567Q926.0556775880023 430.09101377683544 944.1863073359236 430.09101377683544Q962.3450902356276 430.09101377683544 977.7448642606478 419.9558791351403L977.7448642606478 419.9558791351403L978.7583777248171 419.9558791351403L978.7583777248171 437.8049773652368Q961.7257208964129 447.32074266771735 938.7245958901212 447.32074266771735Q915.7234708838296 447.32074266771735 901.8439670550636 433.244166776474Q887.9363100745152 419.1394377334482 887.9363100745152 395.12479926298704Q887.9363100745152 371.1101607925259 900.3236968588094 355.4851615532458Q912.682930491321 339.8883154657482 936.3878842921748 339.8883154657482Q960.1209912448111 339.8883154657482 972.4802248773226 355.4851615532458Q984.8394585098343 371.1101607925259 984.8394585098343 393.60452906673277ZM906.6018497063039 385.1022772284218L906.6018497063039 385.1022772284218L966.3991440923056 385.1022772284218Q965.5827026906135 370.4907914533112 956.5736941202176 363.00205307916974Q947.5365323980395 355.4851615532458 936.3878842921748 355.4851615532458Q925.2392361863101 355.4851615532458 916.3146870712618 363.00205307916974Q907.4182911079961 370.4907914533112 906.6018497063039 385.1022772284218ZM1011.1908085782418 297.3207499706284L1029.6311229957705 297.3207499706284L1029.6311229957705 445.2937157393783L1011.1908085782418 445.2937157393783L1011.1908085782418 297.3207499706284ZM1084.9802194001395 445.2937157393783L1062.2606259116726 445.2937157393783L1062.2606259116726 422.602275402694L1084.9802194001395 422.602275402694L1084.9802194001395 445.2937157393783ZM1170.5094945153337 341.91534239408725L1170.5094945153337 357.7374136958448L1141.1176040544178 357.7374136958448L1141.1176040544178 418.94236567097073Q1141.1176040544178 427.44461750928167 1145.7910272503104 429.47164443762074L1145.7910272503104 429.47164443762074Q1149.6480090445111 431.10452724100503 1155.7290898295282 431.10452724100503Q1161.8101706145455 431.10452724100503 1169.1018369262097 427.86691478601904L1169.1018369262097 427.86691478601904L1170.5094945153337 427.86691478601904L1170.5094945153337 442.87254468608444Q1162.007242677023 447.32074266771735 1152.2662521602824 447.32074266771735L1152.2662521602824 447.32074266771735Q1122.6772896368889 447.32074266771735 1122.6772896368889 420.575248474355L1122.6772896368889 420.575248474355L1122.6772896368889 357.7374136958448L1103.420533817668 357.7374136958448L1103.420533817668 356.4986750174154L1141.1176040544178 319.61804618235783L1141.1176040544178 341.91534239408725L1170.5094945153337 341.91534239408725ZM1231.9396717047198 423.39056365260365L1263.9498052814072 341.91534239408725L1284.0230025023202 341.91534239408725L1240.6389956055082 445.2937157393783L1222.395753250457 445.2937157393783L1179.0398995054275 341.91534239408725L1199.0849435745579 341.91534239408725L1231.1232303030276 423.39056365260365L1231.9396717047198 423.39056365260365Z " fill="grey" transform="matrix(0.6814519407238852,0,0,0.681451940723885,0,46.28129667429468)"/></g></svg>